<?xml version="1.0" standalone="no"?>
<!DOCTYPE svg PUBLIC "-//W3C//DTD SVG 20010904//EN"
 "http://www.w3.org/TR/2001/REC-SVG-20010904/DTD/svg10.dtd">
<svg version="1.0" xmlns="http://www.w3.org/2000/svg"
 width="700.000000pt" height="700.000000pt" viewBox="0 0 700.000000 700.000000"
 preserveAspectRatio="xMidYMid meet">
<metadata>
Created by potrace 1.11, written by Peter Selinger 2001-2013
</metadata>
<g transform="translate(0.000000,700.000000) scale(0.100000,-0.100000)"
fill="#000000" stroke="none">
<path d="M4630 6927 c-80 -38 -199 -96 -265 -127 -66 -32 -194 -94 -285 -137
-91 -44 -226 -110 -300 -146 -74 -35 -220 -106 -325 -157 -104 -50 -271 -130
-370 -178 -411 -199 -418 -202 -442 -252 -18 -37 -21 -52 -14 -83 13 -53 44
-84 126 -122 39 -18 171 -82 295 -142 124 -60 276 -134 338 -163 l112 -54 1
-171 c0 -216 0 -608 0 -657 -1 -36 -3 -38 -34 -38 -233 0 -436 -186 -454 -418
-7 -93 7 -161 49 -246 71 -141 239 -246 394 -246 l52 0 7 -42 c19 -115 33
-171 61 -251 90 -255 217 -425 477 -638 5 -4 -285 -7 -645 -7 -359 0 -674 -3
-698 -7 -25 -4 -66 -16 -93 -26 l-47 -19 0 1029 c0 1154 -5 1076 76 1150 23
22 59 44 80 50 22 6 128 11 241 11 111 0 213 4 228 10 14 5 39 24 56 42 54 60
32 165 -43 204 -27 14 -63 17 -213 17 -99 0 -207 -2 -240 -3 -99 -5 -219 -55
-290 -121 l-29 -28 -41 34 c-54 44 -147 91 -210 106 -36 8 -329 11 -1066 12
-990 0 -1017 0 -1050 -19 -19 -11 -42 -35 -51 -54 -17 -33 -18 -128 -18 -1560
0 -1469 1 -1527 19 -1560 30 -57 66 -72 181 -73 l100 -2 -2 -334 -3 -335 -102
-1 c-93 -1 -104 -3 -136 -28 -20 -15 -41 -43 -47 -63 -17 -51 -7 -407 14 -489
20 -80 94 -227 150 -297 115 -145 309 -259 491 -287 37 -6 1134 -10 2840 -10
3016 -1 2837 -4 2984 51 189 71 368 244 448 433 45 107 55 163 60 366 6 223 0
255 -53 295 -32 25 -43 27 -137 28 l-102 1 -5 1030 c-5 1010 -5 1031 -25 1057
-43 59 -127 75 -186 35 -67 -45 -63 22 -63 -1097 0 -558 -3 -1017 -7 -1020 -4
-3 -1320 -5 -2926 -5 l-2918 0 0 335 0 335 2095 1 c1992 0 2097 1 2125 18 69
41 70 46 72 310 2 132 4 241 6 243 2 2 31 6 63 8 32 3 70 7 84 10 14 3 34 7
45 9 451 87 838 426 989 867 27 79 54 196 58 249 2 29 4 30 53 31 120 2 230
47 313 130 181 183 181 469 -1 646 -93 90 -186 128 -323 132 l-31 1 1 431 1
430 25 15 c40 22 534 261 556 268 20 6 20 2 20 -313 -1 -227 2 -328 11 -349
40 -98 174 -115 237 -29 21 28 21 37 21 501 l0 472 -25 29 c-13 17 -45 40 -70
52 -47 24 -421 204 -600 291 -58 27 -190 92 -295 142 -104 51 -230 112 -280
135 -49 24 -180 87 -290 140 -110 54 -240 117 -290 140 -49 23 -133 64 -185
90 -140 69 -153 68 -330 -18z m406 -323 c121 -58 255 -123 299 -144 44 -21
161 -77 260 -125 99 -48 250 -121 335 -162 85 -41 193 -94 240 -116 l85 -42
-550 -5 c-566 -5 -572 -6 -610 -44 -14 -14 -35 -73 -35 -98 0 -36 32 -87 67
-109 34 -21 41 -21 579 -21 299 -1 544 -2 544 -4 0 -2 -60 -33 -132 -68 -73
-35 -214 -103 -313 -151 -99 -48 -220 -107 -270 -130 -49 -24 -171 -82 -270
-130 -316 -154 -446 -215 -454 -215 -5 0 -118 53 -252 119 -134 65 -282 136
-329 159 -47 22 -175 84 -285 137 -110 53 -241 117 -292 141 -50 24 -181 87
-290 140 -109 53 -218 105 -242 117 l-44 21 194 94 c107 52 248 120 314 152
66 32 197 95 290 140 94 45 220 106 280 135 61 29 191 92 290 140 296 143 360
174 366 174 4 1 105 -47 225 -105z m-1135 -1433 c119 -56 186 -88 634 -306
110 -53 211 -101 224 -106 50 -20 86 -12 211 48 239 116 407 196 639 309 128
63 235 114 237 114 2 0 3 -140 2 -312 l-3 -311 -130 -58 c-71 -32 -155 -69
-185 -82 -30 -14 -204 -90 -387 -170 l-332 -145 -153 68 c-84 37 -288 127
-453 199 -165 73 -324 143 -353 157 -29 13 -57 24 -62 24 -6 0 -11 3 -11 8 -2
11 -4 622 -3 622 1 0 57 -26 125 -59z m-1759 -343 c50 -15 104 -61 131 -111
l22 -42 1 -1038 c1 -946 -1 -1037 -15 -1031 -53 22 -99 35 -147 40 -30 4 -461
7 -957 8 l-902 1 -1 1093 0 1092 915 0 c655 0 927 -4 953 -12z m1718 -556 c25
-11 119 -52 209 -91 90 -40 182 -81 205 -91 296 -136 506 -222 538 -221 32 0
472 185 833 351 33 15 93 42 133 59 l74 31 -5 -373 c-5 -406 -8 -431 -73 -594
-152 -380 -521 -637 -929 -648 -532 -14 -986 368 -1061 895 -8 57 -13 685 -6
707 3 8 10 10 20 4 10 -5 37 -18 62 -29z m-359 -52 c0 -7 0 -264 0 -318 l-1
-42 -43 4 c-196 18 -238 274 -57 349 34 13 99 19 101 7z m2729 -8 c14 -5 38
-22 53 -36 113 -106 44 -303 -109 -309 l-49 -2 -1 181 0 182 40 -3 c23 -2 52
-7 66 -13z m-4099 -1842 c88 -25 154 -104 165 -197 l5 -53 -1014 0 -1014 0 0
123 c0 67 2 125 4 130 7 11 1812 9 1854 -3z m2461 -2 c3 -11 2 -214 -1 -240
-1 -5 -455 -8 -1011 -8 l-1010 0 0 33 c0 92 74 193 158 215 59 16 1859 15
1864 0z m2122 -1471 c12 -5 14 -23 11 -99 -9 -241 -137 -417 -361 -500 l-59
-21 -2780 -2 c-2296 -1 -2790 1 -2840 12 -187 42 -351 199 -395 378 -6 28 -13
91 -16 142 -3 88 -3 92 19 95 41 6 6405 1 6421 -5z"/>
<path d="M725 4200 c-27 -11 -61 -49 -74 -83 -23 -60 16 -145 76 -167 25 -9
166 -12 538 -12 496 0 505 0 539 21 90 56 84 190 -11 236 -27 13 -102 15 -540
14 -279 0 -517 -4 -528 -9z"/>
<path d="M764 3552 c-75 -12 -115 -57 -117 -131 -2 -58 21 -96 72 -123 47 -24
508 -25 558 -1 45 21 73 70 73 128 0 42 -5 52 -39 86 -21 22 -47 39 -57 40
-51 3 -473 4 -490 1z"/>
<path d="M3185 722 c-97 -16 -147 -115 -101 -199 41 -73 47 -74 431 -71 322 3
341 4 367 23 78 57 76 170 -4 226 -32 23 -35 23 -353 24 -176 0 -329 -1 -340
-3z"/>
</g>
</svg>
