<?xml version="1.0" encoding="UTF-8" standalone="no"?>
<!-- Generator: Adobe Illustrator 19.0.0, SVG Export Plug-In . SVG Version: 6.00 Build 0)  -->

<svg
   xmlns:dc="http://purl.org/dc/elements/1.1/"
   xmlns:cc="http://creativecommons.org/ns#"
   xmlns:rdf="http://www.w3.org/1999/02/22-rdf-syntax-ns#"
   xmlns:svg="http://www.w3.org/2000/svg"
   xmlns="http://www.w3.org/2000/svg"
   xmlns:sodipodi="http://sodipodi.sourceforge.net/DTD/sodipodi-0.dtd"
   xmlns:inkscape="http://www.inkscape.org/namespaces/inkscape"
   version="1.1"
   id="Capa_1"
   x="0px"
   y="0px"
   viewBox="0 0 511 511"
   style="enable-background:new 0 0 511 511;"
   xml:space="preserve"
   sodipodi:docname="blutie.svg"
   inkscape:version="0.92.4 5da689c313, 2019-01-14"><metadata
   id="metadata41"><rdf:RDF><cc:Work
       rdf:about=""><dc:format>image/svg+xml</dc:format><dc:type
         rdf:resource="http://purl.org/dc/dcmitype/StillImage" /><dc:title /></cc:Work></rdf:RDF></metadata><defs
   id="defs39" /><sodipodi:namedview
   pagecolor="#ffffff"
   bordercolor="#666666"
   borderopacity="1"
   objecttolerance="10"
   gridtolerance="10"
   guidetolerance="10"
   inkscape:pageopacity="0"
   inkscape:pageshadow="2"
   inkscape:window-width="1366"
   inkscape:window-height="628"
   id="namedview37"
   showgrid="false"
   inkscape:zoom="0.46183953"
   inkscape:cx="-623.59322"
   inkscape:cy="255.5"
   inkscape:window-x="0"
   inkscape:window-y="40"
   inkscape:window-maximized="0"
   inkscape:current-layer="g4" />
<g
   id="g4">
	<path
   d="m 444.21567,-35.884801 c -1.64233,-3.197892 -5.53403,-4.726657 -8.91355,-3.499607 L 28.306424,108.38952 c -2.115832,0.76823 -3.861478,2.02927 -4.782302,4.15172 -1.154771,2.66186 -0.56755,5.80276 1.444082,7.89385 L 187.57364,568.27937 c 1.36655,3.7638 5.52451,5.70589 9.28741,4.33963 3.7629,-1.36624 5.70624,-5.52363 4.33966,-9.28744 L 42.447975,126.09826 173.66426,160.16344 c 4.52092,1.17179 9.06823,-2.35272 9.06993,-7.01228 l 0.0342,-70.67903 47.52892,59.98827 c 0,0 2.49251,12.43228 2.32602,13.21145 l -23.96179,112.24773 c -0.76068,3.56036 1.33775,7.24147 4.79536,8.3901 4.0495,1.34603 8.49321,-1.19797 9.38241,-5.36439 l 18.89489,-88.50964 30.41826,106.3309 c -0.0931,0.40912 -0.15963,0.82912 -0.18112,1.26263 l -7.3135,145.43847 -43.7109,36.32958 -30.04353,-51.2455 24.72246,-115.80811 c 0.83566,-3.91458 -1.66116,-7.76671 -5.57573,-8.60236 -3.91549,-0.83534 -7.7658,1.66082 -8.60204,5.57664 L 176.13823,420.278 c -0.37828,1.77019 -0.0798,3.6175 0.83585,5.1791 l 35.78574,61.0398 c 2.22409,3.79486 7.49325,4.72786 10.88676,1.90813 l 52.72498,-43.82133 c 1.55914,-1.29615 2.50479,-3.18597 2.60668,-5.21054 l 5.42031,-107.80241 16.5457,57.83782 c 3.3e-4,8.5e-4 7e-4,0.002 10e-4,0.004 l 13.75024,48.06555 c 3.1e-4,8.7e-4 3.1e-4,8.7e-4 6.8e-4,0.002 l 6.87394,24.0296 c 0.57728,2.01756 2.00045,3.68584 3.90129,4.57401 l 69.34621,32.40274 c 3.57841,1.67129 7.96362,0.0791 9.63525,-3.49842 l 32.40272,-69.34621 c 0.88817,-1.90084 0.90949,-4.09357 0.0578,-6.0115 L 302.22489,116.34528 300.22055,40.81073 344.96307,94.249027 c 2.99171,3.572693 8.74102,3.35866 11.45609,-0.440397 L 435.66692,-17.144598 594.57075,420.50479 c 1.36659,3.76381 5.52454,5.70591 9.28744,4.33964 3.7629,-1.36624 5.70623,-5.52363 4.33963,-9.28743 L 444.59137,-35.045417 c -0.10812,-0.291859 -0.23679,-0.570043 -0.3757,-0.839384 z m -158.77494,66.336328 0.66109,24.898306 -32.72211,70.029777 -14.07043,5.10875 -5.36194,-6.76747 41.96534,-89.80987 z m 104.53358,319.205623 -50.07401,107.1668 -5.30003,-2.47649 -5.22091,-18.25062 50.74868,-108.61068 z M 256.64124,40.908184 223.88267,111.01596 211.17222,94.974674 232.3069,49.743615 Z m -10.9397,102.682796 28.06999,-10.19178 -19.21887,41.13098 z m 14.92713,52.18204 31.2773,-66.93768 9.84629,22.171 -33.45029,71.58971 z m 27.50009,96.1302 39.0658,-83.60766 9.8466,22.1719 -41.23973,88.257 z m 84.20065,18.02352 -49.02821,104.92702 -7.67298,-26.82213 46.85458,-100.27677 z m -17.64366,-39.7298 -45.13353,96.59184 -7.67265,-26.82123 42.96113,-91.94102 z m -35.28858,-79.46022 -37.34531,79.92398 -7.6733,-26.82304 35.17199,-75.27283 z m -31.76715,-77.79288 -2.35657,0.85564 -12.62141,4.58264 14.30986,-30.625031 z M 213.03456,56.741106 201.10631,82.269181 188.06247,65.808091 Z M 168.2412,143.77742 54.586061,114.27135 168.27685,72.99195 Z m 184.79277,319.18337 44.73772,-95.74482 9.84697,22.17282 -37.99855,81.32204 z m 41.35263,19.32244 -11.63193,-5.43588 32.66195,-69.90098 6.90543,15.54963 z M 350.0629,77.760733 304.62131,23.487352 418.3121,-17.79204 Z"
   id="path2"
   style="fill:#d5eaff;fill-opacity:1;stroke-width:0.96650153"
   inkscape:connector-curvature="0" />
</g>
<g
   id="g6">
</g>
<g
   id="g8">
</g>
<g
   id="g10">
</g>
<g
   id="g12">
</g>
<g
   id="g14">
</g>
<g
   id="g16">
</g>
<g
   id="g18">
</g>
<g
   id="g20">
</g>
<g
   id="g22">
</g>
<g
   id="g24">
</g>
<g
   id="g26">
</g>
<g
   id="g28">
</g>
<g
   id="g30">
</g>
<g
   id="g32">
</g>
<g
   id="g34">
</g>
</svg>