<?xml version="1.0" encoding="UTF-8" standalone="no"?>
<!-- Generator: Adobe Illustrator 19.0.0, SVG Export Plug-In . SVG Version: 6.00 Build 0)  -->

<svg
   xmlns:dc="http://purl.org/dc/elements/1.1/"
   xmlns:cc="http://creativecommons.org/ns#"
   xmlns:rdf="http://www.w3.org/1999/02/22-rdf-syntax-ns#"
   xmlns:svg="http://www.w3.org/2000/svg"
   xmlns="http://www.w3.org/2000/svg"
   xmlns:sodipodi="http://sodipodi.sourceforge.net/DTD/sodipodi-0.dtd"
   xmlns:inkscape="http://www.inkscape.org/namespaces/inkscape"
   version="1.1"
   id="Capa_1"
   x="0px"
   y="0px"
   viewBox="0 0 511.936 511.936"
   style="enable-background:new 0 0 511.936 511.936;"
   xml:space="preserve"
   sodipodi:docname="partner.svg"
   inkscape:version="0.92.4 5da689c313, 2019-01-14"><metadata
   id="metadata45"><rdf:RDF><cc:Work
       rdf:about=""><dc:format>image/svg+xml</dc:format><dc:type
         rdf:resource="http://purl.org/dc/dcmitype/StillImage" /></cc:Work></rdf:RDF></metadata><defs
   id="defs43" /><sodipodi:namedview
   pagecolor="#ffffff"
   bordercolor="#666666"
   borderopacity="1"
   objecttolerance="10"
   gridtolerance="10"
   guidetolerance="10"
   inkscape:pageopacity="0"
   inkscape:pageshadow="2"
   inkscape:window-width="1366"
   inkscape:window-height="628"
   id="namedview41"
   showgrid="false"
   inkscape:zoom="0.46099512"
   inkscape:cx="-184.38373"
   inkscape:cy="255.968"
   inkscape:window-x="0"
   inkscape:window-y="40"
   inkscape:window-maximized="0"
   inkscape:current-layer="g873" />
<g
   id="g8"
   style="fill:#000000;fill-opacity:1">
	<g
   id="g6"
   style="fill:#000000;fill-opacity:1">
		
		<g
   id="g873"
   transform="translate(-6.5076611,-86.768814)"><path
     style="fill:#dbf4ff;fill-opacity:1;stroke-width:0.81987637"
     d="m 492.68208,2.748072 c -1.56484,-0.167317 -3.19456,0.262332 -4.51591,1.328404 L 325.80324,135.07886 c -2.67765,2.16001 -3.0328,6.2406 -0.76945,8.83219 l 9.33747,10.68693 -3.42703,2.60228 -66.91866,-10.79618 c -1.03267,-0.16535 -2.12596,-0.0669 -3.10694,0.30094 l -55.16638,20.34223 c -0.1523,-0.0518 -0.30421,-0.10144 -0.46321,-0.14176 l -30.29263,-7.69452 2.95244,-6.16046 c 1.46005,-3.04617 0.18962,-6.70131 -2.84504,-8.18353 L 79.900811,98.339845 c -3.052741,-1.49343 -6.733014,-0.2253 -8.223878,2.825985 -1.491676,3.05121 -0.226892,6.73289 2.824393,8.22374 L 164.22055,153.23748 99.39853,288.44319 66.632518,274.02664 c -3.109809,-1.36695 -6.737499,0.0438 -8.105209,3.15271 -1.367709,3.10894 0.04461,6.73758 3.152723,8.10522 l 38.214713,16.812 c 2.999835,1.32015 6.605805,-0.0186 8.021095,-2.97111 l 10.83261,-22.59637 22.86913,15.14177 -2.94839,4.07169 c -8.35358,11.53204 -5.76776,27.71079 5.76503,36.06525 6.09877,4.41772 13.96358,5.94076 21.27709,4.1593 0.59319,7.52787 4.47354,14.49514 10.59342,18.92757 6.0988,4.41769 13.96279,5.94069 21.27711,4.15928 0.59402,7.52794 4.47202,14.49422 10.59184,18.92745 6.11748,4.43143 13.94243,5.94803 21.2797,4.16752 0.59588,7.52478 4.47412,14.488 10.59241,18.91948 8.89268,6.4411 21.29031,6.49632 30.21227,0.079 2.24937,-1.61792 4.228,-3.60017 5.85299,-5.84405 l 4.68699,-6.46849 3.28596,2.37143 c 8.90615,6.42568 21.30309,6.4583 30.21309,0.0245 2.24642,-1.62225 4.22157,-3.60945 5.84264,-5.85607 3.22195,-4.46513 4.79989,-9.62112 4.8647,-14.74885 1.91267,0.61345 3.88695,1.0126 5.89831,1.16186 8.90644,0.66092 17.67844,-3.40925 22.90263,-10.64851 3.14681,-4.36136 4.81673,-9.47686 4.88053,-14.74608 1.90811,0.61021 3.87778,1.00872 5.88259,1.15748 8.90642,0.66092 17.67938,-3.41078 22.90272,-10.65008 3.14956,-4.36446 4.81807,-9.48311 4.87968,-14.75579 1.92921,0.6135 3.90412,1.00586 5.88932,1.15317 8.66112,0.64271 17.45262,-3.09012 22.89676,-10.63448 8.33258,-11.54838 5.71669,-27.72154 -5.83168,-36.05412 l -4.00991,-2.89402 15.18561,-13.67952 12.21746,13.98523 c 2.14304,2.45195 5.94919,2.78506 8.48555,0.74529 l 31.18561,-25.09069 c 2.64574,-2.12868 3.06395,-5.99832 0.93535,-8.64488 -2.13024,-2.64665 -5.99978,-3.06566 -8.64632,-0.93707 L 444.07514,261.4827 338.50171,140.63442 495.88917,13.64806 c 2.64276,-2.132995 3.05645,-6.004587 0.92429,-8.647283 -1.06608,-1.321353 -2.56651,-2.08541 -4.13138,-2.252705 z m -150.20193,161.133788 75.90826,86.88893 -17.29538,15.58148 -29.01156,-20.93337 c -2.69062,-1.94176 -6.642,-1.30118 -8.58293,1.3895 -1.94175,2.69062 -1.30288,6.64349 1.38779,8.58442 l 43.22393,31.18884 c 6.04844,4.36464 7.41917,12.83591 3.05449,18.88518 -4.36465,6.04845 -12.8375,7.41906 -18.88677,3.05437 l -46.35745,-33.45102 c -2.75374,-1.98836 -6.59779,-1.36446 -8.58451,1.38942 -1.98675,2.75386 -1.36449,6.59779 1.38937,8.58453 l 35.71923,25.77301 c 5.97594,4.31157 7.37317,12.90234 3.05438,18.88678 -4.31158,5.97593 -12.90068,7.37244 -18.88518,3.05448 L 326.2432,309.4 c -2.75464,-1.98762 -6.5977,-1.36606 -8.58443,1.38782 -1.98673,2.75386 -1.36606,6.59768 1.38779,8.58439 l 21.73393,15.68217 c 5.97505,4.31233 7.37333,12.89991 3.05448,18.88516 -4.31152,5.97511 -12.90073,7.37329 -18.88518,3.05449 0,0 -19.11451,-13.77877 -19.29507,-13.88261 -2.70002,-1.56014 -6.19534,-0.85104 -8.05748,1.73039 -1.98673,2.75387 -1.36435,6.59621 1.38953,8.58293 l 8.12956,5.86685 c 6.04845,4.36463 7.41761,12.83579 3.0529,18.88504 -4.31157,5.97594 -12.90067,7.37246 -18.88517,3.05449 l -3.26763,-2.35883 3.23078,-4.45859 c 4.12921,-5.7009 5.81823,-12.97429 4.63436,-19.95405 -1.16764,-6.88814 -4.91218,-12.84003 -10.54398,-16.75941 -4.39432,-3.0572 -9.45495,-4.53841 -14.48635,-4.57221 1.23992,-3.96848 1.56055,-8.22451 0.85604,-12.37923 -1.16764,-6.88814 -4.91378,-12.84013 -10.54556,-16.7595 -4.39427,-3.05802 -9.45497,-4.53842 -14.48636,-4.57221 3.33497,-10.67537 -0.45234,-22.7107 -9.68799,-29.13862 -4.39435,-3.05721 -9.45502,-4.53761 -14.48638,-4.57222 3.33506,-10.67534 -0.45402,-22.7092 -9.68968,-29.13715 -11.46612,-7.97872 -27.46252,-5.26303 -35.65942,6.05206 l -28.309,39.07968 -24.72597,-16.3666 45.45582,-94.8121 20.53238,5.2152 c -6.4626,6.91055 -8.89417,17.13397 -5.4038,26.60086 3.61162,9.79401 12.56889,16.09476 22.35758,16.82032 3.56487,0.26453 7.24199,-0.21078 10.809,-1.52621 l 37.12547,-13.69088 c 3.14434,-1.15937 4.80113,-4.75372 3.64177,-7.89809 -1.15941,-3.14354 -4.75205,-4.80184 -7.89648,-3.64166 l -37.12547,13.6909 c -6.9972,2.58183 -14.79269,-1.01206 -17.3736,-8.0108 -2.5809,-6.99875 1.01364,-14.79258 8.01239,-17.37348 l 59.40779,-21.90938 67.92449,10.96072 c 0.17465,0.0285 0.34877,0.0482 0.52372,0.0612 1.48808,0.11042 2.97457,-0.32431 4.17328,-1.23341 z m -69.41002,18.88219 c -2.83798,-0.12158 -5.53232,1.78418 -6.25396,4.62608 -0.82473,3.24787 1.19776,6.64903 4.44563,7.47375 l 16.5687,4.20814 53.28918,38.45176 c 2.60166,1.87762 6.40033,1.34145 8.40511,-1.15704 2.1515,-2.68079 1.57503,-6.80647 -1.20998,-8.8169 l -54.23719,-39.13549 c -0.66091,-0.47738 -1.43487,-0.82449 -2.22925,-1.01005 l -17.55842,-4.45981 c -0.40599,-0.1032 -0.8144,-0.16299 -1.21982,-0.18042 z m -73.41437,61.5928 c 2.14294,0.24517 4.25112,1.00392 6.12788,2.30933 6.21421,4.32433 7.34785,13.36724 2.97593,19.40281 l -38.21813,52.75896 c -4.37636,6.04017 -12.85115,7.39502 -18.89227,3.02023 -6.04106,-4.3756 -7.39585,-12.85121 -3.02024,-18.89227 L 187.10805,249.839 c 2.9522,-4.07601 7.83324,-6.02165 12.54771,-5.48215 z m 24.17431,33.71086 c 2.14296,0.24516 4.25126,1.00233 6.12801,2.30775 6.21421,4.32432 7.34694,13.36875 2.97422,19.40428 l -30.52192,42.13494 c -4.37473,6.04032 -12.85044,7.39592 -18.89069,3.02039 -5.96766,-4.3233 -7.3508,-12.91529 -3.02024,-18.89228 l 30.78307,-42.49455 c 2.95212,-4.07541 7.83308,-6.01984 12.54755,-5.48053 z m 24.17766,33.70949 c 2.14292,0.24517 4.2514,1.00397 6.1279,2.30934 6.21421,4.32433 7.34623,13.36711 2.9743,19.40271 l -22.82584,31.51255 c -2.12122,2.9264 -5.25521,4.85241 -8.82284,5.42295 -3.56934,0.57123 -7.14531,-0.28332 -10.07103,-2.40284 -5.96683,-4.32323 -7.34913,-12.91599 -3.01863,-18.89215 l 23.08685,-31.87053 c 2.9522,-4.07599 7.83483,-6.0215 12.54929,-5.48203 z m 24.17434,33.71087 c 2.14293,0.24517 4.24984,1.00307 6.12628,2.30923 6.21428,4.32351 7.34773,13.36882 2.97582,19.4044 l -15.13114,20.88684 c -4.32331,5.96768 -12.9143,7.34845 -18.89216,3.01863 -5.96691,-4.32241 -7.34845,-12.91432 -3.01876,-18.89055 l 15.39066,-21.24653 c 2.95211,-4.07487 7.83484,-6.02145 12.5493,-5.48202 z"
     id="path2"
     inkscape:connector-curvature="0" /></g>
	</g>
</g>
<g
   id="g10">
</g>
<g
   id="g12">
</g>
<g
   id="g14">
</g>
<g
   id="g16">
</g>
<g
   id="g18">
</g>
<g
   id="g20">
</g>
<g
   id="g22">
</g>
<g
   id="g24">
</g>
<g
   id="g26">
</g>
<g
   id="g28">
</g>
<g
   id="g30">
</g>
<g
   id="g32">
</g>
<g
   id="g34">
</g>
<g
   id="g36">
</g>
<g
   id="g38">
</g>
</svg>