<?xml version="1.0" encoding="UTF-8" standalone="no"?>
<!-- Generator: Adobe Illustrator 19.0.0, SVG Export Plug-In . SVG Version: 6.00 Build 0)  -->

<svg
   xmlns:dc="http://purl.org/dc/elements/1.1/"
   xmlns:cc="http://creativecommons.org/ns#"
   xmlns:rdf="http://www.w3.org/1999/02/22-rdf-syntax-ns#"
   xmlns:svg="http://www.w3.org/2000/svg"
   xmlns="http://www.w3.org/2000/svg"
   xmlns:sodipodi="http://sodipodi.sourceforge.net/DTD/sodipodi-0.dtd"
   xmlns:inkscape="http://www.inkscape.org/namespaces/inkscape"
   version="1.1"
   id="Capa_1"
   x="0px"
   y="0px"
   viewBox="0 0 511 511"
   style="enable-background:new 0 0 511 511;"
   xml:space="preserve"
   sodipodi:docname="pres.svg"
   inkscape:version="0.92.4 5da689c313, 2019-01-14"><metadata
   id="metadata49"><rdf:RDF><cc:Work
       rdf:about=""><dc:format>image/svg+xml</dc:format><dc:type
         rdf:resource="http://purl.org/dc/dcmitype/StillImage" /><dc:title></dc:title></cc:Work></rdf:RDF></metadata><defs
   id="defs47" /><sodipodi:namedview
   pagecolor="#ffffff"
   bordercolor="#666666"
   borderopacity="1"
   objecttolerance="10"
   gridtolerance="10"
   guidetolerance="10"
   inkscape:pageopacity="0"
   inkscape:pageshadow="2"
   inkscape:window-width="1366"
   inkscape:window-height="628"
   id="namedview45"
   showgrid="false"
   inkscape:zoom="0.92367906"
   inkscape:cx="195.72178"
   inkscape:cy="114.52198"
   inkscape:window-x="0"
   inkscape:window-y="40"
   inkscape:window-maximized="0"
   inkscape:current-layer="g10" />
<g
   id="g12">
	<g
   id="g10"
   style="fill:#d5eaff;fill-opacity:1">
		<path
   d="M503.5,56H353.528L259.279,1.022c-2.336-1.362-5.223-1.362-7.558,0L157.472,56H7.5C3.358,56,0,59.358,0,63.5v32    c0,4.142,3.358,7.5,7.5,7.5H24v312.5c0,4.142,3.358,7.5,7.5,7.5H248v73h-24.5c-4.142,0-7.5,3.358-7.5,7.5s3.358,7.5,7.5,7.5h64    c4.143,0,7.5-3.358,7.5-7.5s-3.357-7.5-7.5-7.5H263v-73h216.5c4.143,0,7.5-3.358,7.5-7.5V103h16.5c4.143,0,7.5-3.358,7.5-7.5v-32    C511,59.358,507.643,56,503.5,56z M255.5,16.183L323.758,56H187.242L255.5,16.183z M496,88h-76.5c-4.143,0-7.5,3.358-7.5,7.5    s3.357,7.5,7.5,7.5H472v305H39V103h345.833c4.143,0,7.5-3.358,7.5-7.5s-3.357-7.5-7.5-7.5H15V71h481V88z"
   id="path2"
   style="fill:#d5eaff;fill-opacity:1" />
		
		
		<path
   style="fill:#d5eaff;fill-opacity:1"
   d="m 95.5,300.44081 c -4.142,0 -7.5,3.358 -7.5,7.5 0,4.142 3.358,7.5 7.5,7.5 H 165 239.5 309 c 4.142,0 7.5,-3.358 7.5,-7.5 0,-4.142 -3.358,-7.5 -7.5,-7.5 H 239.5 165 Z"
   id="path8"
   inkscape:connector-curvature="0" />
	<path
   id="path902"
   d="m 95.5,264.8 c -4.142,0 -7.5,3.358 -7.5,7.5 0,4.142 3.358,7.5 7.5,7.5 H 165 239.5 309 c 4.142,0 7.5,-3.358 7.5,-7.5 0,-4.142 -3.358,-7.5 -7.5,-7.5 H 239.5 165 Z"
   style="fill:#d5eaff;fill-opacity:1"
   inkscape:connector-curvature="0" /><path
   inkscape:connector-curvature="0"
   style="fill:#d5eaff;fill-opacity:1"
   d="m 95.5,201.6 c -4.142,0 -7.5,3.358 -7.5,7.5 0,4.142 3.358,7.5 7.5,7.5 H 165 239.5 309 c 4.142,0 7.5,-3.358 7.5,-7.5 0,-4.142 -3.358,-7.5 -7.5,-7.5 H 239.5 165 Z"
   id="path906" /></g>
</g>
<g
   id="g14">
</g>
<g
   id="g16">
</g>
<g
   id="g18">
</g>
<g
   id="g20">
</g>
<g
   id="g22">
</g>
<g
   id="g24">
</g>
<g
   id="g26">
</g>
<g
   id="g28">
</g>
<g
   id="g30">
</g>
<g
   id="g32">
</g>
<g
   id="g34">
</g>
<g
   id="g36">
</g>
<g
   id="g38">
</g>
<g
   id="g40">
</g>
<g
   id="g42">
</g>
</svg>